<svg width="38" height="212" viewBox="0 0 38 212" fill="none" xmlns="http://www.w3.org/2000/svg">
<path d="M25.2371 57.0855C23.7561 57.0855 22.3273 56.5536 20.9507 55.4898C20.2415 54.9266 19.6574 54.0818 19.1986 52.9555C18.7605 51.85 18.5415 50.5359 18.5415 49.0132L18.5415 45.6968L10 45.6968L10 40.3466L31.9639 40.3466L31.9639 49.0132C31.9639 51.558 31.3069 53.5395 29.9928 54.9579C28.6787 56.3763 27.0935 57.0855 25.2371 57.0855ZM22.6089 45.6968L22.6089 49.0132C22.6089 49.8267 22.8488 50.4629 23.3285 50.9218C23.8083 51.4015 24.434 51.6414 25.2058 51.6414C25.9984 51.6414 26.645 51.4015 27.1456 50.9218C27.6462 50.442 27.8965 49.8059 27.8965 49.0132L27.8965 45.6968L22.6089 45.6968ZM10 76.1301L13.6919 74.9099L13.6919 67.0254L10 65.8052L10 60.1108L32.0265 67.745L32.0265 74.2528L10 81.8557L10 76.1301ZM17.7593 68.3707L17.7593 73.5645L25.5812 70.9676L17.7593 68.3707ZM12.9723 88.3288C15.0999 86.1596 17.7906 85.0749 21.0445 85.0749C24.2984 85.0749 26.9787 86.1596 29.0854 88.3288C31.213 90.519 32.2768 93.1888 32.2768 96.3385C32.2768 98.7789 31.6302 100.948 30.337 102.846C29.0437 104.744 27.2499 106.069 24.9555 106.82L24.9555 100.437C26.5616 99.6028 27.3646 98.2679 27.3646 96.4323C27.3646 94.5968 26.791 93.1471 25.6438 92.0833C24.4966 91.0404 22.9635 90.519 21.0445 90.519C19.1256 90.519 17.5925 91.0404 16.4452 92.0833C15.298 93.1471 14.7244 94.5655 14.7244 96.3385C14.7244 97.6108 15.0373 98.6433 15.6631 99.4359C16.3097 100.249 17.1649 100.792 18.2286 101.063L18.2286 94.8679L22.296 94.8679L22.296 106.82L18.2286 106.82C16.2262 106.424 14.3594 105.328 12.6282 103.535C11.7938 102.679 11.1159 101.616 10.5945 100.343C10.073 99.0918 9.81227 97.7568 9.81227 96.3385C9.81227 93.1888 10.8656 90.519 12.9723 88.3288ZM32.0265 125.426L27.9591 125.426L27.9591 117.479L23.2347 117.479L23.2347 124.487L19.1673 124.487L19.1673 117.479L14.0674 117.479L14.0674 125.426L10 125.426L10 112.128L32.0265 112.128L32.0265 125.426ZM27.8965 141.666L31.9639 141.666L31.9639 159L27.8965 159L27.8965 152.992L9.99999 152.992L10 147.642L27.8965 147.642L27.8965 141.666ZM16.4452 178.254C17.5925 179.318 19.1256 179.85 21.0445 179.85C22.9635 179.85 24.4966 179.318 25.6438 178.254C26.791 177.211 27.3646 175.803 27.3646 174.03C27.3646 172.278 26.791 170.87 25.6438 169.806C24.4966 168.763 22.9635 168.242 21.0445 168.242C19.1256 168.242 17.5925 168.763 16.4452 169.806C15.298 170.87 14.7244 172.278 14.7244 174.03C14.7244 175.803 15.298 177.211 16.4452 178.254ZM12.9723 166.052C15.0999 163.882 17.7906 162.798 21.0445 162.798C24.2984 162.798 26.9787 163.882 29.0854 166.052C31.213 168.242 32.2768 170.912 32.2768 174.061C32.2768 177.232 31.213 179.891 29.0854 182.04C26.9787 184.209 24.2984 185.294 21.0445 185.294C17.7906 185.294 15.0999 184.209 12.9723 182.04C10.8448 179.87 9.78098 177.211 9.78098 174.061C9.78098 170.912 10.8448 168.242 12.9723 166.052ZM25.2371 207.354C23.7561 207.354 22.3273 206.822 20.9507 205.758C20.2415 205.195 19.6574 204.35 19.1986 203.224C18.7605 202.119 18.5415 200.804 18.5415 199.282L18.5415 195.965L9.99999 195.965L9.99999 190.615L31.9639 190.615L31.9639 199.282C31.9639 201.827 31.3069 203.808 29.9928 205.226C28.6787 206.645 27.0935 207.354 25.2371 207.354ZM22.6089 195.965L22.6089 199.282C22.6089 200.095 22.8488 200.731 23.3285 201.19C23.8083 201.67 24.434 201.91 25.2058 201.91C25.9984 201.91 26.645 201.67 27.1456 201.19C27.6462 200.711 27.8965 200.074 27.8965 199.282L27.8965 195.965L22.6089 195.965Z" fill="#222222"/>
<line x1="9" y1="1.5" x2="31" y2="1.5" stroke="#222222" stroke-width="3"/>
<path d="M20.2427 9.00036L21.3033 7.9397L20.2427 6.87904L19.182 7.9397L20.2427 9.00036ZM11.4248 19.9396L21.3033 10.061L19.182 7.9397L9.30348 17.8182L11.4248 19.9396ZM19.182 10.061L29.0606 19.9396L31.1819 17.8182L21.3033 7.9397L19.182 10.061Z" fill="#222222"/>
</svg>
