<svg width="1294" height="164" viewBox="0 0 1294 164" fill="none" xmlns="http://www.w3.org/2000/svg">
<path d="M123.645 159.014L111.653 128.701H51.9016L40.5613 159.014H0L64.7685 4.62183H100.971L165.081 159.014H123.645ZM82.2149 45.8445L62.5906 98.8317H101.405L82.2149 45.8445Z" fill="white"/>
<path d="M308.567 159.014L275.04 97.7361H262.333V159.014H225.914V4.62183H284.797C292.202 4.62183 299.438 5.3901 306.492 6.90993C313.537 8.43979 319.867 11.0252 325.465 14.6528C331.053 18.287 335.529 23.0904 338.876 29.0495C342.213 35.0086 343.887 42.424 343.887 51.2892C343.887 61.761 341.058 70.5594 335.386 77.6776C329.714 84.8025 321.864 89.8864 311.837 92.9428L352.171 159.014H308.567ZM307.037 51.9472C307.037 48.313 306.268 45.3735 304.732 43.1121C303.202 40.8608 301.231 39.1138 298.816 37.8745C296.411 36.6453 293.706 35.8036 290.713 35.3693C287.72 34.9351 284.824 34.718 282.058 34.718H262.116V70.693H279.86C282.936 70.693 286.073 70.4391 289.293 69.9348C292.503 69.427 295.426 68.5151 298.055 67.2124C300.677 65.8997 302.838 64.0124 304.511 61.5406C306.195 59.0654 307.037 55.8721 307.037 51.9472Z" fill="white"/>
<path d="M418.472 159.014V4.62183H455.984V159.014H418.472Z" fill="white"/>
<path d="M646.452 159.231C636.351 161.7 625.335 162.939 613.417 162.939C601.064 162.939 589.687 160.978 579.295 157.05C568.894 153.125 559.962 147.6 552.473 140.472C544.984 133.354 539.135 124.809 534.92 114.852C530.697 104.895 528.596 93.808 528.596 81.5992C528.596 69.2468 530.731 58.0501 535.026 48.0192C539.312 37.9816 545.238 29.4437 552.797 22.389C560.356 15.3443 569.221 9.92636 579.402 6.14513C589.577 2.37059 600.556 0.47998 612.331 0.47998C624.54 0.47998 635.88 2.33385 646.345 6.04158C656.817 9.74932 665.318 14.7331 671.865 20.9828L648.306 47.8054C644.672 43.5833 639.879 40.1361 633.919 37.4404C627.96 34.7548 621.196 33.4087 613.634 33.4087C607.097 33.4087 601.064 34.6112 595.536 37.0095C590.011 39.4045 585.218 42.7515 581.149 47.0405C577.071 51.3261 573.914 56.42 571.663 62.3056C569.402 68.1946 568.279 74.6213 568.279 81.6059C568.279 88.7308 569.291 95.2711 571.336 101.23C573.37 107.189 576.383 112.317 580.378 116.606C584.376 120.891 589.323 124.238 595.209 126.637C601.098 129.042 607.815 130.237 615.377 130.237C619.747 130.237 623.889 129.913 627.813 129.262C631.738 128.601 635.366 127.552 638.709 126.095V97.96H609.271V67.8706H672.948V149.641C665.388 153.563 656.563 156.763 646.452 159.231Z" fill="white"/>
<path d="M856.127 159.014L844.135 128.701H784.384L773.043 159.014H732.482L797.25 4.62183H833.453L897.563 159.014H856.127ZM814.7 45.8445L795.076 98.8317H833.89L814.7 45.8445Z" fill="white"/>
<path d="M1024.47 36.4649V159.014H987.186V36.4649H943.579V4.62183H1068.09V36.4649H1024.47Z" fill="white"/>
<path d="M1294 81.165C1294 93.3738 1291.89 104.534 1287.68 114.635C1283.46 124.746 1277.62 133.391 1270.13 140.582C1262.64 147.781 1253.73 153.342 1243.41 157.267C1233.09 161.192 1221.9 163.156 1209.83 163.156C1197.76 163.156 1186.61 161.195 1176.36 157.267C1166.11 153.342 1157.24 147.781 1149.76 140.582C1142.27 133.394 1136.42 124.746 1132.2 114.635C1127.98 104.534 1125.88 93.3738 1125.88 81.165C1125.88 68.8126 1127.98 57.6526 1132.2 47.6851C1136.42 37.7377 1142.27 29.2634 1149.76 22.2821C1157.24 15.3109 1166.11 9.9297 1176.36 6.14848C1186.61 2.37059 1197.76 0.47998 1209.83 0.47998C1221.9 0.47998 1233.09 2.37059 1243.41 6.15181C1253.73 9.93304 1262.64 15.3143 1270.13 22.2855C1277.62 29.2667 1283.46 37.7411 1287.68 47.6885C1291.89 57.6526 1294 68.8126 1294 81.165ZM1254.1 81.165C1254.1 74.4811 1253 68.2247 1250.83 62.4092C1248.65 56.5937 1245.63 51.62 1241.77 47.468C1237.92 43.326 1233.27 40.0626 1227.82 37.6542C1222.36 35.2592 1216.37 34.0534 1209.83 34.0534C1203.29 34.0534 1197.33 35.2559 1191.95 37.6542C1186.57 40.0592 1181.91 43.326 1177.99 47.468C1174.06 51.62 1171.05 56.5937 1168.95 62.4092C1166.84 68.2247 1165.78 74.4811 1165.78 81.165C1165.78 88.1362 1166.87 94.5763 1169.05 100.465C1171.23 106.354 1174.24 111.408 1178.09 115.624C1181.95 119.839 1186.57 123.139 1191.95 125.544C1197.32 127.939 1203.29 129.145 1209.83 129.145C1216.37 129.145 1222.33 127.943 1227.71 125.544C1233.09 123.139 1237.74 119.839 1241.67 115.624C1245.59 111.408 1248.65 106.354 1250.83 100.465C1253 94.5797 1254.1 88.1396 1254.1 81.165Z" fill="white"/>
</svg>
