<svg width="30" height="22" viewBox="0 0 30 22" fill="none" xmlns="http://www.w3.org/2000/svg">
<path d="M4.626 1.758C5.70867 1.236 6.98467 0.974999 8.454 0.974999C9.92333 0.974999 11.1897 1.236 12.253 1.758C13.3357 2.28 14.1863 3.02433 14.805 3.991C15.4237 4.95767 15.878 6.05967 16.168 7.297C16.458 8.515 16.603 9.89733 16.603 11.444C16.603 12.9907 16.458 14.3827 16.168 15.62C15.878 16.838 15.4237 17.9303 14.805 18.897C14.1863 19.8637 13.3357 20.608 12.253 21.13C11.1897 21.652 9.92333 21.913 8.454 21.913C6.98467 21.913 5.70867 21.652 4.626 21.13C3.56267 20.608 2.72167 19.8637 2.103 18.897C1.48433 17.9303 1.03 16.838 0.74 15.62C0.45 14.3827 0.305 12.9907 0.305 11.444C0.305 9.89733 0.45 8.515 0.74 7.297C1.03 6.05967 1.48433 4.95767 2.103 3.991C2.72167 3.02433 3.56267 2.28 4.626 1.758ZM9.904 5.963C9.498 5.731 9.01467 5.615 8.454 5.615C7.89333 5.615 7.40033 5.731 6.975 5.963C6.569 6.17567 6.25 6.44633 6.018 6.775C5.80533 7.10367 5.63133 7.53867 5.496 8.08C5.36067 8.62133 5.27367 9.14333 5.235 9.646C5.19633 10.1487 5.177 10.748 5.177 11.444C5.177 12.14 5.19633 12.7393 5.235 13.242C5.27367 13.7447 5.36067 14.2667 5.496 14.808C5.63133 15.3493 5.80533 15.7843 6.018 16.113C6.25 16.4417 6.569 16.722 6.975 16.954C7.40033 17.1667 7.89333 17.273 8.454 17.273C9.01467 17.273 9.498 17.1667 9.904 16.954C10.3293 16.722 10.6483 16.4417 10.861 16.113C11.093 15.7843 11.2767 15.3493 11.412 14.808C11.5473 14.2667 11.6343 13.7447 11.673 13.242C11.7117 12.7393 11.731 12.14 11.731 11.444C11.731 10.748 11.7117 10.1487 11.673 9.646C11.6343 9.14333 11.5473 8.62133 11.412 8.08C11.2767 7.53867 11.093 7.10367 10.861 6.775C10.6483 6.44633 10.3293 6.17567 9.904 5.963ZM23.979 22V6.021H20.47V1.41H29.112V22H23.979Z" fill="#222222"/>
</svg>
